<?xml version="1.0" standalone="no"?>
<!DOCTYPE svg PUBLIC "-//W3C//DTD SVG 20010904//EN"
 "http://www.w3.org/TR/2001/REC-SVG-20010904/DTD/svg10.dtd">
<svg version="1.0" xmlns="http://www.w3.org/2000/svg" width="384.000000pt" height="384.000000pt" viewBox="0 0 384.000000 384.000000" preserveAspectRatio="xMidYMid meet">
<metadata>
Created by potrace 1.14, written by Peter Selinger 2001-2017
</metadata>
<g transform="translate(0.000000,384.000000) scale(0.100000,-0.100000)" fill="#000000" stroke="none">
<path d="M25 3828 c-3 -7 33 -169 81 -358 94 -377 93 -374 100 -410 3 -14 8
-34 11 -45 4 -11 8 -25 9 -30 1 -10 46 -191 124 -505 23 -91 43 -174 46 -185
2 -11 51 -211 110 -445 58 -234 107 -432 109 -440 2 -8 11 -44 20 -80 9 -36
19 -76 22 -89 2 -14 42 -178 89 -365 47 -188 87 -349 89 -359 35 -164 130
-517 139 -517 15 0 78 60 689 650 71 69 153 148 182 175 92 89 477 458 530
510 29 28 143 138 255 245 112 107 226 218 255 245 160 155 566 545 848 816
59 56 88 92 85 101 -5 12 -198 74 -318 102 -8 2 -116 33 -240 70 -222 64 -469
135 -1670 481 -338 97 -815 234 -1060 305 -539 156 -499 145 -505 128z m360
-128 c432 -125 548 -160 554 -166 3 -3 -2 -11 -11 -18 -10 -7 -116 -108 -235
-223 -345 -334 -398 -382 -405 -375 -4 4 -25 84 -48 177 -23 94 -68 278 -101
410 -32 132 -61 250 -64 263 -5 19 -2 23 12 18 10 -3 144 -42 298 -86z m681
-550 c47 -190 87 -352 89 -360 2 -8 10 -44 20 -79 9 -35 14 -65 11 -68 -4 -4
-797 217 -839 235 -15 6 20 43 189 207 115 110 260 250 323 312 64 61 117 109
118 105 2 -4 41 -162 89 -352z m362 249 c213 -60 402 -115 419 -122 l33 -11
-64 -60 c-53 -51 -344 -331 -523 -504 -45 -43 -66 -55 -68 -37 -1 8 -26 120
-30 135 -11 36 -175 700 -175 705 0 10 35 1 408 -106z m955 -275 c221 -64 408
-119 415 -123 8 -5 -50 -68 -179 -192 -106 -101 -249 -239 -318 -306 -69 -68
-129 -123 -132 -123 -6 0 -16 30 -25 75 -2 12 -33 140 -69 285 -36 146 -77
312 -91 370 -14 58 -28 114 -31 124 -4 15 -2 18 12 12 9 -3 198 -58 418 -122z
m-388 -234 c48 -190 88 -352 90 -360 2 -8 8 -35 15 -60 23 -85 24 -103 3 -96
-10 3 -200 58 -423 122 -223 63 -407 118 -410 120 -2 3 31 39 75 81 103 97
488 469 529 509 17 18 32 31 33 30 1 -1 41 -157 88 -346z m1075 36 c345 -99
684 -197 687 -200 2 -1 -48 -51 -109 -111 -62 -59 -207 -198 -321 -309 -115
-110 -212 -202 -217 -204 -6 -2 -220 838 -220 867 0 6 6 8 13 6 6 -3 82 -25
167 -49z m-15 -825 c-2 -2 -28 4 -57 13 -116 35 -339 98 -388 110 -8 2 -71 21
-140 41 -69 20 -158 47 -198 58 -73 22 -73 22 -54 42 22 23 427 415 547 529
l80 76 107 -432 c58 -238 105 -434 103 -437z m-2202 588 l329 -93 -193 -186
c-106 -102 -253 -244 -328 -317 -91 -88 -138 -127 -143 -119 -4 7 -10 28 -13
46 -3 18 -8 36 -10 40 -2 3 -6 17 -8 31 -5 27 -175 715 -182 740 -5 14 13 11
107 -16 62 -18 261 -74 441 -126z m825 -235 c224 -64 413 -120 420 -123 12 -7
-76 -95 -523 -524 -55 -53 -103 -97 -106 -97 -3 0 -18 51 -33 113 -16 61 -59
238 -98 392 -38 154 -72 291 -74 305 -3 14 -7 31 -9 38 -2 6 0 12 6 12 6 0
194 -52 417 -116z m-461 89 c2 -15 133 -553 192 -783 11 -41 18 -76 16 -78 -2
-2 -147 37 -322 88 -175 51 -369 106 -430 123 -62 17 -113 34 -113 38 0 7 60
66 355 351 208 202 289 278 295 278 3 0 6 -8 7 -17z m1816 -481 l27 -7 -23
-25 c-22 -23 -301 -292 -537 -518 -52 -50 -96 -89 -98 -87 -2 2 -188 750 -215
865 -3 12 98 -14 407 -102 226 -65 423 -122 439 -126z m-883 214 c0 -8 47
-204 104 -437 58 -233 104 -425 102 -426 -3 -3 -295 79 -683 193 -84 24 -159
44 -168 44 -8 0 -15 4 -15 9 0 7 170 174 540 530 58 55 108 101 113 101 4 0 7
-6 7 -14z m-1145 -520 c204 -58 376 -109 384 -111 8 -3 -13 -31 -62 -78 -414
-401 -569 -549 -573 -545 -2 3 -43 158 -49 191 -2 9 -11 45 -20 80 -9 34 -18
72 -21 84 -2 12 -31 130 -64 262 -33 133 -60 243 -60 245 0 5 32 -3 465 -128z
m547 -573 c58 -236 104 -430 103 -431 -4 -4 -847 237 -854 244 -2 2 30 36 72
76 294 282 496 478 522 505 16 18 35 32 40 33 6 0 58 -192 117 -427z m186 361
c387 -112 605 -174 609 -174 5 0 -19 -24 -343 -335 -114 -110 -228 -219 -252
-243 -25 -23 -47 -41 -49 -38 -3 2 -14 40 -25 83 -19 74 -23 90 -32 131 -2 10
-25 103 -51 207 -26 105 -48 197 -50 205 -2 8 -15 61 -29 117 -14 56 -26 104
-26 107 0 11 23 6 248 -60z m-510 -716 c232 -67 422 -124 422 -128 0 -3 -75
-79 -167 -167 -93 -88 -240 -230 -328 -316 -128 -124 -161 -152 -167 -139 -6
13 -114 444 -133 532 -2 8 -22 88 -44 178 -23 89 -41 165 -41 168 0 3 8 3 18
-1 9 -3 207 -61 440 -127z"></path>
</g>
</svg>
